<?xml version="1.0" encoding="UTF-8"?>
<!DOCTYPE svg PUBLIC "-//W3C//DTD SVG 1.1//EN" "http://www.w3.org/Graphics/SVG/1.1/DTD/svg11.dtd">
<svg xmlns="http://www.w3.org/2000/svg" version="1.1" width="234px" height="215px" style="shape-rendering:geometricPrecision; text-rendering:geometricPrecision; image-rendering:optimizeQuality; fill-rule:evenodd; clip-rule:evenodd" xmlns:xlink="http://www.w3.org/1999/xlink">
<g><path style="opacity:1" fill="#666666" d="M 117.5,25.5 C 128.278,31.7266 138.944,38.2266 149.5,45C 150.833,45.3333 152.167,45.6667 153.5,46C 164.498,53.5209 175.831,60.3542 187.5,66.5C 187.5,66.8333 187.5,67.1667 187.5,67.5C 187.95,87.853 188.784,108.186 190,128.5C 192.517,124.63 194.85,120.63 197,116.5C 201.978,103.215 207.978,90.5487 215,78.5C 215.822,76.2115 216.489,73.8782 217,71.5C 218.067,69.3083 219.567,67.6417 221.5,66.5C 225.19,83.0267 229.19,99.36 233.5,115.5C 233.5,116.5 233.5,117.5 233.5,118.5C 233.167,118.5 232.833,118.5 232.5,118.5C 231.054,117.387 229.387,117.22 227.5,118C 215.692,122.381 203.692,126.381 191.5,130C 190.944,130.383 190.611,130.883 190.5,131.5C 189.833,131.5 189.167,131.5 188.5,131.5C 188.631,130.761 188.464,130.094 188,129.5C 179.903,123.053 172.403,116.053 165.5,108.5C 165.158,107.662 164.492,107.328 163.5,107.5C 148.514,80.0154 133.18,52.682 117.5,25.5 Z"/></g>
<g><path style="opacity:1" fill="#7e7e7e" d="M 220.5,63.5 C 221.404,64.209 221.737,65.209 221.5,66.5C 219.567,67.6417 218.067,69.3083 217,71.5C 216.489,73.8782 215.822,76.2115 215,78.5C 207.978,90.5487 201.978,103.215 197,116.5C 194.85,120.63 192.517,124.63 190,128.5C 188.784,108.186 187.95,87.853 187.5,67.5C 198.488,66.0848 209.488,64.7514 220.5,63.5 Z"/></g>
<g><path style="opacity:1" fill="#fdfdfd" d="M -0.5,-0.5 C 77.5,-0.5 155.5,-0.5 233.5,-0.5C 233.5,38.1667 233.5,76.8333 233.5,115.5C 229.19,99.36 225.19,83.0267 221.5,66.5C 221.737,65.209 221.404,64.209 220.5,63.5C 210.298,50.4227 199.632,37.7561 188.5,25.5C 188.5,24.8333 188.167,24.5 187.5,24.5C 164.373,16.2093 141.039,8.20932 117.5,0.5C 116.833,0.666667 116.167,0.833333 115.5,1C 104.608,12.6285 93.6084,24.1285 82.5,35.5C 80.955,34.7703 80.1216,33.437 80,31.5C 79.2064,23.7384 77.8731,16.0717 76,8.5C 75.0027,10.3231 73.8361,11.9897 72.5,13.5C 48.7636,45.9677 25.7636,78.9677 3.5,112.5C 2.51163,113.795 1.51163,115.128 0.5,116.5C 1.96492,117.737 3.63159,118.737 5.5,119.5C 23.0464,128.019 40.7131,136.352 58.5,144.5C 68.9217,137.584 78.2551,129.251 86.5,119.5C 87.8333,118.833 88.8333,117.833 89.5,116.5C 90.1611,114.866 90.4944,113.033 90.5,111C 89.9897,101.333 89.323,91.8334 88.5,82.5C 88.5,78.1667 88.5,73.8333 88.5,69.5C 93.875,93.885 98.875,119.552 103.5,146.5C 103.5,147.833 103.5,149.167 103.5,150.5C 103.167,150.5 102.833,150.5 102.5,150.5C 94.647,153.928 86.9803,157.594 79.5,161.5C 76.835,163.64 74.5017,166.14 72.5,169C 81.8274,169.5 91.1607,169.666 100.5,169.5C 102.38,169.771 103.713,169.104 104.5,167.5C 108.587,162.085 112.254,156.418 115.5,150.5C 116.495,139.346 116.828,128.012 116.5,116.5C 131.477,113.726 146.477,111.059 161.5,108.5C 162.492,108.672 163.158,108.338 163.5,107.5C 164.492,107.328 165.158,107.662 165.5,108.5C 166.436,114.411 167.769,120.244 169.5,126C 165.641,129.098 161.308,131.431 156.5,133C 163.737,135.476 171.07,137.643 178.5,139.5C 182.165,137.159 185.499,134.493 188.5,131.5C 189.167,131.5 189.833,131.5 190.5,131.5C 192.501,146.17 194.501,160.837 196.5,175.5C 185.781,181.859 175.781,189.192 166.5,197.5C 166.167,197.5 165.833,197.5 165.5,197.5C 154.042,192.898 142.709,187.898 131.5,182.5C 130.5,182.167 129.833,181.5 129.5,180.5C 130.5,180.167 131.167,179.5 131.5,178.5C 140.276,170.301 148.609,161.635 156.5,152.5C 157.167,152.5 157.833,152.5 158.5,152.5C 164.839,157.996 171.505,162.996 178.5,167.5C 178.5,167.833 178.5,168.167 178.5,168.5C 173.833,172.833 169.167,177.167 164.5,181.5C 160.583,181.372 156.917,180.372 153.5,178.5C 152.244,178.539 151.244,178.039 150.5,177C 152.041,175.629 153.375,174.129 154.5,172.5C 158.293,169.993 162.626,168.826 167.5,169C 163.167,166.5 158.833,164 154.5,161.5C 149.173,164.827 144.839,169.161 141.5,174.5C 140.711,174.783 140.044,175.283 139.5,176C 147.389,181.107 155.389,185.941 163.5,190.5C 164.659,192.377 166.326,192.877 168.5,192C 174.696,186.634 180.696,181.134 186.5,175.5C 187.962,174.199 189.296,172.699 190.5,171C 190.43,170.235 190.097,169.735 189.5,169.5C 186.07,161.642 182.403,153.976 178.5,146.5C 178.5,145.833 178.167,145.5 177.5,145.5C 165.138,140.825 152.805,136.158 140.5,131.5C 138.613,133.789 137.279,136.455 136.5,139.5C 130.608,154.182 125.608,168.848 121.5,183.5C 130.808,191.805 140.141,200.138 149.5,208.5C 151.087,211.783 153.421,213.117 156.5,212.5C 168.833,209.167 181.167,205.833 193.5,202.5C 196.226,202.145 198.226,200.812 199.5,198.5C 209.699,173.902 219.699,149.235 229.5,124.5C 230.87,122.75 231.87,120.75 232.5,118.5C 232.833,118.5 233.167,118.5 233.5,118.5C 233.5,150.5 233.5,182.5 233.5,214.5C 155.5,214.5 77.5,214.5 -0.5,214.5C -0.5,142.833 -0.5,71.1667 -0.5,-0.5 Z"/></g>
<g><path style="opacity:1" fill="#666666" d="M 116.5,25.5 C 116.5,48.8333 116.5,72.1667 116.5,95.5C 108.877,87.8719 101.543,79.8719 94.5,71.5C 93.3131,70.1062 92.6465,70.2729 92.5,72C 99.9549,87.2459 107.955,102.079 116.5,116.5C 116.828,128.012 116.495,139.346 115.5,150.5C 115.598,141.038 115.432,131.371 115,121.5C 112.509,125.314 111.009,129.48 110.5,134C 107.946,138.171 105.612,142.337 103.5,146.5C 98.875,119.552 93.875,93.885 88.5,69.5C 87.5233,66.7131 87.19,63.7131 87.5,60.5C 89.6018,59.5606 91.7685,58.5606 94,57.5C 100.958,46.3877 108.458,35.721 116.5,25.5 Z"/></g>
<g><path style="opacity:1" fill="#141414" d="M 83.5,45.5 C 84.6813,50.5597 86.0146,55.5597 87.5,60.5C 87.19,63.7131 87.5233,66.7131 88.5,69.5C 88.5,73.8333 88.5,78.1667 88.5,82.5C 88.665,85.8499 88.4983,89.1832 88,92.5C 86.3719,77.975 84.5385,63.475 82.5,49C 82.5143,47.6153 82.8476,46.4486 83.5,45.5 Z"/></g>
<g><path style="opacity:1" fill="#646464" d="M 83.5,45.5 C 82.8476,46.4486 82.5143,47.6153 82.5,49C 84.5385,63.475 86.3719,77.975 88,92.5C 88.4983,89.1832 88.665,85.8499 88.5,82.5C 89.323,91.8334 89.9897,101.333 90.5,111C 90.4944,113.033 90.1611,114.866 89.5,116.5C 85.1667,108.5 80.8333,100.5 76.5,92.5C 76.5,92.1667 76.5,91.8333 76.5,91.5C 76.6567,90.1266 76.49,88.7932 76,87.5C 75.6667,88.1667 75.3333,88.8333 75,89.5C 74.3551,88.354 73.5217,87.354 72.5,86.5C 70.7593,81.9129 68.7593,77.4129 66.5,73C 70.5365,62.5555 74.3699,52.0555 78,41.5C 78.7199,39.7448 79.8866,38.9115 81.5,39C 82.2301,41.154 82.8968,43.3206 83.5,45.5 Z"/></g>
<g><path style="opacity:1" fill="#989898" d="M 72.5,13.5 C 67.2515,24.4558 62.5848,35.6225 58.5,47C 60.8301,55.3291 63.1635,63.6624 65.5,72C 64.9794,76.2371 62.9794,79.5704 59.5,82C 60.624,82.2492 61.624,82.7492 62.5,83.5C 63.8531,86.1897 65.1864,88.8564 66.5,91.5C 64.733,94.7767 62.733,97.9434 60.5,101C 56.8484,101.499 53.1817,101.665 49.5,101.5C 47.1756,98.8189 45.1756,95.8189 43.5,92.5C 40.8013,91.2706 38.1346,91.2706 35.5,92.5C 38.1202,86.4517 40.6202,80.4517 43,74.5C 30.2414,87.7618 17.0748,100.428 3.5,112.5C 25.7636,78.9677 48.7636,45.9677 72.5,13.5 Z"/></g>
<g><path style="opacity:1" fill="#999999" d="M 188.5,25.5 C 199.632,37.7561 210.298,50.4227 220.5,63.5C 209.488,64.7514 198.488,66.0848 187.5,67.5C 187.5,67.1667 187.5,66.8333 187.5,66.5C 188.255,52.8468 188.588,39.1801 188.5,25.5 Z"/></g>
<g><path style="opacity:1" fill="#4b4b4b" d="M 116.5,25.5 C 116.833,25.5 117.167,25.5 117.5,25.5C 133.18,52.682 148.514,80.0154 163.5,107.5C 163.158,108.338 162.492,108.672 161.5,108.5C 160.158,107.207 158.491,106.374 156.5,106C 143.11,102.558 129.777,99.0578 116.5,95.5C 116.5,72.1667 116.5,48.8333 116.5,25.5 Z"/></g>
<g><path style="opacity:1" fill="#7e7e7e" d="M 82.5,35.5 C 95.189,32.247 107.689,28.247 120,23.5C 142.467,24.4843 164.967,24.8177 187.5,24.5C 188.167,24.5 188.5,24.8333 188.5,25.5C 188.588,39.1801 188.255,52.8468 187.5,66.5C 175.831,60.3542 164.498,53.5209 153.5,46C 152.167,45.6667 150.833,45.3333 149.5,45C 138.944,38.2266 128.278,31.7266 117.5,25.5C 117.167,25.5 116.833,25.5 116.5,25.5C 108.458,35.721 100.958,46.3877 94,57.5C 91.7685,58.5606 89.6018,59.5606 87.5,60.5C 86.0146,55.5597 84.6813,50.5597 83.5,45.5C 82.8968,43.3206 82.2301,41.154 81.5,39C 79.8866,38.9115 78.7199,39.7448 78,41.5C 74.3699,52.0555 70.5365,62.5555 66.5,73C 68.7593,77.4129 70.7593,81.9129 72.5,86.5C 73.5217,87.354 74.3551,88.354 75,89.5C 75.3333,88.8333 75.6667,88.1667 76,87.5C 76.49,88.7932 76.6567,90.1266 76.5,91.5C 73.1667,91.5 69.8333,91.5 66.5,91.5C 65.1864,88.8564 63.8531,86.1897 62.5,83.5C 61.624,82.7492 60.624,82.2492 59.5,82C 62.9794,79.5704 64.9794,76.2371 65.5,72C 63.1635,63.6624 60.8301,55.3291 58.5,47C 62.5848,35.6225 67.2515,24.4558 72.5,13.5C 73.8361,11.9897 75.0027,10.3231 76,8.5C 77.8731,16.0717 79.2064,23.7384 80,31.5C 80.1216,33.437 80.955,34.7703 82.5,35.5 Z"/></g>
<g><path style="opacity:1" fill="#989898" d="M 187.5,24.5 C 164.967,24.8177 142.467,24.4843 120,23.5C 107.689,28.247 95.189,32.247 82.5,35.5C 93.6084,24.1285 104.608,12.6285 115.5,1C 116.167,0.833333 116.833,0.666667 117.5,0.5C 141.039,8.20932 164.373,16.2093 187.5,24.5 Z"/></g>
<g><path style="opacity:1" fill="#4c4c4c" d="M 116.5,95.5 C 116.722,102.608 116.722,109.608 116.5,116.5C 107.955,102.079 99.9549,87.2459 92.5,72C 92.6465,70.2729 93.3131,70.1062 94.5,71.5C 101.543,79.8719 108.877,87.8719 116.5,95.5 Z"/></g>
<g><path style="opacity:1" fill="#191919" d="M 50.5,83.5 C 53.7766,83.2161 56.9433,83.5495 60,84.5C 61.1667,86.8333 62.3333,89.1667 63.5,91.5C 62.3649,93.7989 61.0316,95.9656 59.5,98C 56.5,98.6667 53.5,98.6667 50.5,98C 48.9684,95.9656 47.6351,93.7989 46.5,91.5C 47.8599,88.7802 49.1932,86.1136 50.5,83.5 Z"/></g>
<g><path style="opacity:1" fill="#4e4e4e" d="M 35.5,92.5 C 38.0863,98.1216 41.253,103.455 45,108.5C 46.5106,106.138 48.0106,103.805 49.5,101.5C 53.1817,101.665 56.8484,101.499 60.5,101C 62.733,97.9434 64.733,94.7767 66.5,91.5C 69.8333,91.5 73.1667,91.5 76.5,91.5C 76.5,91.8333 76.5,92.1667 76.5,92.5C 74.9783,93.4312 73.6449,94.5979 72.5,96C 70.7203,100.278 68.7203,104.444 66.5,108.5C 57.8525,109.332 49.1858,109.832 40.5,110C 28.4048,111.883 17.0714,114.05 6.5,116.5C 4.69074,117.291 2.69074,117.291 0.5,116.5C 1.51163,115.128 2.51163,113.795 3.5,112.5C 17.0748,100.428 30.2414,87.7618 43,74.5C 40.6202,80.4517 38.1202,86.4517 35.5,92.5 Z"/></g>
<g><path style="opacity:1" fill="#7d7d7d" d="M 49.5,101.5 C 48.0106,103.805 46.5106,106.138 45,108.5C 41.253,103.455 38.0863,98.1216 35.5,92.5C 38.1346,91.2706 40.8013,91.2706 43.5,92.5C 45.1756,95.8189 47.1756,98.8189 49.5,101.5 Z"/></g>
<g><path style="opacity:1" fill="#343434" d="M 76.5,92.5 C 80.8333,100.5 85.1667,108.5 89.5,116.5C 62.0414,116.478 34.3747,116.478 6.5,116.5C 17.0714,114.05 28.4048,111.883 40.5,110C 49.1858,109.832 57.8525,109.332 66.5,108.5C 68.7203,104.444 70.7203,100.278 72.5,96C 73.6449,94.5979 74.9783,93.4312 76.5,92.5 Z"/></g>
<g><path style="opacity:1" fill="#323232" d="M 116.5,95.5 C 129.777,99.0578 143.11,102.558 156.5,106C 158.491,106.374 160.158,107.207 161.5,108.5C 146.477,111.059 131.477,113.726 116.5,116.5C 116.722,109.608 116.722,102.608 116.5,95.5 Z"/></g>
<g><path style="opacity:1" fill="#646464" d="M 89.5,116.5 C 88.8333,117.833 87.8333,118.833 86.5,119.5C 77.891,123.804 69.2243,128.138 60.5,132.5C 42.1592,128.987 24.1592,124.32 6.5,118.5C 5.89333,118.624 5.55999,118.957 5.5,119.5C 3.63159,118.737 1.96492,117.737 0.5,116.5C 2.69074,117.291 4.69074,117.291 6.5,116.5C 34.3747,116.478 62.0414,116.478 89.5,116.5 Z"/></g>
<g><path style="opacity:1" fill="#4c4c4c" d="M 232.5,118.5 C 231.87,120.75 230.87,122.75 229.5,124.5C 220.785,137.691 211.952,150.691 203,163.5C 202.008,167.482 200.341,171.149 198,174.5C 197.506,176.134 197.34,177.801 197.5,179.5C 196.566,178.432 196.232,177.099 196.5,175.5C 194.501,160.837 192.501,146.17 190.5,131.5C 190.611,130.883 190.944,130.383 191.5,130C 203.692,126.381 215.692,122.381 227.5,118C 229.387,117.22 231.054,117.387 232.5,118.5 Z"/></g>
<g><path style="opacity:1" fill="#4c4c4c" d="M 115.5,150.5 C 111.5,150.5 107.5,150.5 103.5,150.5C 103.5,149.167 103.5,147.833 103.5,146.5C 105.612,142.337 107.946,138.171 110.5,134C 111.009,129.48 112.509,125.314 115,121.5C 115.432,131.371 115.598,141.038 115.5,150.5 Z"/></g>
<g><path style="opacity:1" fill="#4d4d4d" d="M 5.5,119.5 C 5.55999,118.957 5.89333,118.624 6.5,118.5C 24.1592,124.32 42.1592,128.987 60.5,132.5C 59.5078,134.546 58.5078,136.713 57.5,139C 57.9444,140.762 58.4444,140.595 59,138.5C 59.1667,139 59.3333,139.5 59.5,140C 59.0109,141.564 58.6776,143.064 58.5,144.5C 40.7131,136.352 23.0464,128.019 5.5,119.5 Z"/></g>
<g><path style="opacity:1" fill="#464646" d="M 165.5,108.5 C 172.403,116.053 179.903,123.053 188,129.5C 188.464,130.094 188.631,130.761 188.5,131.5C 185.499,134.493 182.165,137.159 178.5,139.5C 171.07,137.643 163.737,135.476 156.5,133C 161.308,131.431 165.641,129.098 169.5,126C 167.769,120.244 166.436,114.411 165.5,108.5 Z"/></g>
<g><path style="opacity:1" fill="#343434" d="M 86.5,119.5 C 78.2551,129.251 68.9217,137.584 58.5,144.5C 58.6776,143.064 59.0109,141.564 59.5,140C 59.3333,139.5 59.1667,139 59,138.5C 58.4444,140.595 57.9444,140.762 57.5,139C 58.5078,136.713 59.5078,134.546 60.5,132.5C 69.2243,128.138 77.891,123.804 86.5,119.5 Z"/></g>
<g><path style="opacity:1" fill="#7f7f7f" d="M 140.5,131.5 C 145.856,138.518 151.19,145.518 156.5,152.5C 148.609,161.635 140.276,170.301 131.5,178.5C 130.982,177.423 130.648,176.256 130.5,175C 132.406,165.701 134.573,156.535 137,147.5C 137.801,144.633 137.634,141.966 136.5,139.5C 137.279,136.455 138.613,133.789 140.5,131.5 Z"/></g>
<g><path style="opacity:1" fill="#979797" d="M 140.5,131.5 C 152.805,136.158 165.138,140.825 177.5,145.5C 171.288,148.017 164.955,150.35 158.5,152.5C 157.833,152.5 157.167,152.5 156.5,152.5C 151.19,145.518 145.856,138.518 140.5,131.5 Z"/></g>
<g><path style="opacity:1" fill="#666666" d="M 177.5,145.5 C 178.167,145.5 178.5,145.833 178.5,146.5C 178.408,153.29 178.408,160.29 178.5,167.5C 171.505,162.996 164.839,157.996 158.5,152.5C 164.955,150.35 171.288,148.017 177.5,145.5 Z"/></g>
<g><path style="opacity:1" fill="#4b4b4b" d="M 102.5,150.5 C 103.126,156.268 103.793,161.934 104.5,167.5C 103.713,169.104 102.38,169.771 100.5,169.5C 93.9969,167.026 87.3303,164.859 80.5,163C 79.944,162.617 79.6107,162.117 79.5,161.5C 86.9803,157.594 94.647,153.928 102.5,150.5 Z"/></g>
<g><path style="opacity:1" fill="#6a6a6a" d="M 136.5,139.5 C 137.634,141.966 137.801,144.633 137,147.5C 134.573,156.535 132.406,165.701 130.5,175C 130.648,176.256 130.982,177.423 131.5,178.5C 131.167,179.5 130.5,180.167 129.5,180.5C 126.868,181.751 124.201,182.751 121.5,183.5C 125.608,168.848 130.608,154.182 136.5,139.5 Z"/></g>
<g><path style="opacity:1" fill="#323232" d="M 102.5,150.5 C 102.833,150.5 103.167,150.5 103.5,150.5C 107.5,150.5 111.5,150.5 115.5,150.5C 112.254,156.418 108.587,162.085 104.5,167.5C 103.793,161.934 103.126,156.268 102.5,150.5 Z"/></g>
<g><path style="opacity:1" fill="#323232" d="M 229.5,124.5 C 219.699,149.235 209.699,173.902 199.5,198.5C 198.253,192.37 197.586,186.037 197.5,179.5C 197.34,177.801 197.506,176.134 198,174.5C 200.341,171.149 202.008,167.482 203,163.5C 211.952,150.691 220.785,137.691 229.5,124.5 Z"/></g>
<g><path style="opacity:1" fill="#7f7f7f" d="M 178.5,146.5 C 182.403,153.976 186.07,161.642 189.5,169.5C 187.713,170.817 186.046,170.484 184.5,168.5C 182.468,169.819 180.468,169.819 178.5,168.5C 178.5,168.167 178.5,167.833 178.5,167.5C 178.408,160.29 178.408,153.29 178.5,146.5 Z"/></g>
<g><path style="opacity:1" fill="#313131" d="M 79.5,161.5 C 79.6107,162.117 79.944,162.617 80.5,163C 87.3303,164.859 93.9969,167.026 100.5,169.5C 91.1607,169.666 81.8274,169.5 72.5,169C 74.5017,166.14 76.835,163.64 79.5,161.5 Z"/></g>
<g><path style="opacity:1" fill="#929292" d="M 154.5,172.5 C 154.44,171.957 154.107,171.624 153.5,171.5C 149.492,172.503 145.492,173.503 141.5,174.5C 144.839,169.161 149.173,164.827 154.5,161.5C 158.833,164 163.167,166.5 167.5,169C 162.626,168.826 158.293,169.993 154.5,172.5 Z"/></g>
<g><path style="opacity:1" fill="#9a9a9a" d="M 178.5,168.5 C 180.468,169.819 182.468,169.819 184.5,168.5C 186.046,170.484 187.713,170.817 189.5,169.5C 190.097,169.735 190.43,170.235 190.5,171C 189.296,172.699 187.962,174.199 186.5,175.5C 186.217,174.711 185.717,174.044 185,173.5C 178.37,176.533 171.537,179.2 164.5,181.5C 169.167,177.167 173.833,172.833 178.5,168.5 Z"/></g>
<g><path style="opacity:1" fill="#626262" d="M 154.5,172.5 C 153.375,174.129 152.041,175.629 150.5,177C 151.244,178.039 152.244,178.539 153.5,178.5C 156.374,182.723 159.707,186.723 163.5,190.5C 155.389,185.941 147.389,181.107 139.5,176C 140.044,175.283 140.711,174.783 141.5,174.5C 145.492,173.503 149.492,172.503 153.5,171.5C 154.107,171.624 154.44,171.957 154.5,172.5 Z"/></g>
<g><path style="opacity:1" fill="#7f7f7f" d="M 186.5,175.5 C 180.696,181.134 174.696,186.634 168.5,192C 166.326,192.877 164.659,192.377 163.5,190.5C 159.707,186.723 156.374,182.723 153.5,178.5C 156.917,180.372 160.583,181.372 164.5,181.5C 171.537,179.2 178.37,176.533 185,173.5C 185.717,174.044 186.217,174.711 186.5,175.5 Z"/></g>
<g><path style="opacity:1" fill="#656565" d="M 196.5,175.5 C 196.232,177.099 196.566,178.432 197.5,179.5C 197.586,186.037 198.253,192.37 199.5,198.5C 198.226,200.812 196.226,202.145 193.5,202.5C 192.77,200.955 191.437,200.122 189.5,200C 181.625,199.729 173.958,198.895 166.5,197.5C 175.781,189.192 185.781,181.859 196.5,175.5 Z"/></g>
<g><path style="opacity:1" fill="#7e7e7e" d="M 131.5,182.5 C 142.709,187.898 154.042,192.898 165.5,197.5C 161.749,201.995 158.749,206.995 156.5,212.5C 153.421,213.117 151.087,211.783 149.5,208.5C 149.938,208.565 150.272,208.399 150.5,208C 143.539,199.887 137.206,191.387 131.5,182.5 Z"/></g>
<g><path style="opacity:1" fill="#4d4d4d" d="M 129.5,180.5 C 129.833,181.5 130.5,182.167 131.5,182.5C 137.206,191.387 143.539,199.887 150.5,208C 150.272,208.399 149.938,208.565 149.5,208.5C 140.141,200.138 130.808,191.805 121.5,183.5C 124.201,182.751 126.868,181.751 129.5,180.5 Z"/></g>
<g><path style="opacity:1" fill="#4c4c4c" d="M 165.5,197.5 C 165.833,197.5 166.167,197.5 166.5,197.5C 173.958,198.895 181.625,199.729 189.5,200C 191.437,200.122 192.77,200.955 193.5,202.5C 181.167,205.833 168.833,209.167 156.5,212.5C 158.749,206.995 161.749,201.995 165.5,197.5 Z"/></g>
</svg>
